<?xml version="1.0" encoding="utf-8" standalone="no"?>
<!DOCTYPE svg PUBLIC "-//W3C//DTD SVG 1.1//EN"
  "http://www.w3.org/Graphics/SVG/1.1/DTD/svg11.dtd">
<svg xmlns:xlink="http://www.w3.org/1999/xlink" width="432pt" height="288pt" viewBox="0 0 432 288" xmlns="http://www.w3.org/2000/svg" version="1.1">
 <metadata>
  <rdf:RDF xmlns:dc="http://purl.org/dc/elements/1.1/" xmlns:cc="http://creativecommons.org/ns#" xmlns:rdf="http://www.w3.org/1999/02/22-rdf-syntax-ns#">
   <cc:Work>
    <dc:type rdf:resource="http://purl.org/dc/dcmitype/StillImage"/>
    <dc:date>2025-09-24T14:38:09.959050</dc:date>
    <dc:format>image/svg+xml</dc:format>
    <dc:creator>
     <cc:Agent>
      <dc:title>Matplotlib v3.5.1, https://matplotlib.org/</dc:title>
     </cc:Agent>
    </dc:creator>
   </cc:Work>
  </rdf:RDF>
 </metadata>
 <defs>
  <style type="text/css">*{stroke-linejoin: round; stroke-linecap: butt}</style>
 </defs>
 <g id="figure_1">
  <g id="patch_1">
   <path d="M 0 288 
L 432 288 
L 432 0 
L 0 0 
z
" style="fill: #ffffff"/>
  </g>
  <g id="axes_1">
   <g id="patch_2">
    <path d="M 47.72 246.04 
L 391.06 246.04 
L 391.06 14.76 
L 47.72 14.76 
z
" style="fill: #ffffff"/>
   </g>
   <g id="PolyCollection_1">
    <defs>
     <path id="m60a679eb5c" d="M 48.419267 -120.800631 
L 48.419267 -211.098187 
L 55.411935 -154.569266 
L 62.404603 -191.060695 
L 69.397271 -183.691301 
L 76.389939 -181.309732 
L 83.382607 -176.407965 
L 90.375275 -174.87446 
L 97.367943 -173.941947 
L 104.360611 -171.303909 
L 111.353279 -166.764637 
L 118.345947 -173.890352 
L 125.338615 -170.0113 
L 132.331283 -169.596945 
L 139.323951 -169.073484 
L 146.316619 -163.581939 
L 153.309287 -171.098457 
L 160.301955 -175.291734 
L 167.294623 -166.308409 
L 174.287291 -164.795771 
L 181.279959 -168.101063 
L 188.272627 -162.815997 
L 195.265295 -166.592145 
L 202.257963 -158.773918 
L 209.250631 -163.814266 
L 216.243299 -167.619168 
L 223.235967 -162.746644 
L 230.228635 -164.364048 
L 237.221303 -163.311185 
L 244.213971 -168.134142 
L 251.20664 -165.891149 
L 258.199308 -163.125566 
L 265.191976 -162.608637 
L 272.184644 -162.216421 
L 279.177312 -156.505838 
L 286.16998 -162.383515 
L 293.162648 -168.83049 
L 300.155316 -160.985221 
L 307.147984 -163.252727 
L 314.140652 -164.742229 
L 321.13332 -163.605833 
L 328.125988 -159.99015 
L 335.118656 -164.958984 
L 342.111324 -166.745009 
L 349.103992 -161.559437 
L 356.09666 -161.546668 
L 363.089328 -162.312264 
L 370.081996 -166.222456 
L 377.074664 -161.058397 
L 384.067332 -167.80274 
L 391.06 -158.914109 
L 391.06 -144.735744 
L 391.06 -144.735744 
L 384.067332 -151.763824 
L 377.074664 -150.142118 
L 370.081996 -153.206686 
L 363.089328 -145.726057 
L 356.09666 -148.569928 
L 349.103992 -151.819311 
L 342.111324 -153.913519 
L 335.118656 -153.177586 
L 328.125988 -149.075516 
L 321.13332 -148.211062 
L 314.140652 -151.982227 
L 307.147984 -147.308548 
L 300.155316 -148.50652 
L 293.162648 -155.810682 
L 286.16998 -148.23279 
L 279.177312 -146.639657 
L 272.184644 -153.553945 
L 265.191976 -149.656233 
L 258.199308 -154.254139 
L 251.20664 -155.694097 
L 244.213971 -155.367155 
L 237.221303 -152.556729 
L 230.228635 -151.205311 
L 223.235967 -149.264692 
L 216.243299 -154.934939 
L 209.250631 -148.357883 
L 202.257963 -147.142704 
L 195.265295 -155.579684 
L 188.272627 -151.405133 
L 181.279959 -158.053858 
L 174.287291 -148.97047 
L 167.294623 -154.878108 
L 160.301955 -157.679089 
L 153.309287 -152.861834 
L 146.316619 -156.080814 
L 139.323951 -154.695403 
L 132.331283 -155.687314 
L 125.338615 -159.236763 
L 118.345947 -154.058677 
L 111.353279 -154.386645 
L 104.360611 -163.386131 
L 97.367943 -163.26159 
L 90.375275 -161.320602 
L 83.382607 -159.700629 
L 76.389939 -169.132004 
L 69.397271 -171.437079 
L 62.404603 -172.509954 
L 55.411935 -125.197319 
L 48.419267 -120.800631 
z
" style="stroke: #b22222; stroke-opacity: 0.1"/>
    </defs>
    <g clip-path="url(#p5cba5ddb01)">
     <use xlink:href="#m60a679eb5c" x="0" y="288" style="fill: #b22222; fill-opacity: 0.1; stroke: #b22222; stroke-opacity: 0.1"/>
    </g>
   </g>
   <g id="PolyCollection_2">
    <defs>
     <path id="mf41818cf26" d="M 48.419267 -145.485911 
L 48.419267 -178.902069 
L 55.411935 -201.724329 
L 62.404603 -226.590272 
L 69.397271 -228.90552 
L 76.389939 -228.611595 
L 83.382607 -231.392585 
L 90.375275 -228.405508 
L 97.367943 -230.22195 
L 104.360611 -229.893845 
L 111.353279 -226.826362 
L 118.345947 -229.034418 
L 125.338615 -230.05119 
L 132.331283 -229.53188 
L 139.323951 -227.296251 
L 146.316619 -229.297272 
L 153.309287 -228.359543 
L 160.301955 -228.631501 
L 167.294623 -230.878258 
L 174.287291 -231.56016 
L 181.279959 -228.171554 
L 188.272627 -230.403631 
L 195.265295 -231.194801 
L 202.257963 -229.61246 
L 209.250631 -228.211929 
L 216.243299 -230.431329 
L 223.235967 -225.329813 
L 230.228635 -232.057987 
L 237.221303 -230.584528 
L 244.213971 -230.398871 
L 251.20664 -226.995606 
L 258.199308 -225.257022 
L 265.191976 -229.036373 
L 272.184644 -227.997823 
L 279.177312 -233.167076 
L 286.16998 -229.302107 
L 293.162648 -226.27025 
L 300.155316 -227.741135 
L 307.147984 -225.23768 
L 314.140652 -229.348311 
L 321.13332 -225.585659 
L 328.125988 -230.201196 
L 335.118656 -231.090934 
L 342.111324 -223.292713 
L 349.103992 -226.918428 
L 356.09666 -228.637978 
L 363.089328 -229.081093 
L 370.081996 -226.264885 
L 377.074664 -227.678309 
L 384.067332 -224.770602 
L 391.06 -226.042044 
L 391.06 -219.381292 
L 391.06 -219.381292 
L 384.067332 -217.15877 
L 377.074664 -220.444547 
L 370.081996 -220.544487 
L 363.089328 -220.182853 
L 356.09666 -218.622675 
L 349.103992 -220.106921 
L 342.111324 -218.867458 
L 335.118656 -215.774794 
L 328.125988 -221.729826 
L 321.13332 -218.089532 
L 314.140652 -218.411302 
L 307.147984 -215.575739 
L 300.155316 -220.658166 
L 293.162648 -214.694255 
L 286.16998 -218.117356 
L 279.177312 -220.171648 
L 272.184644 -220.503165 
L 265.191976 -219.011673 
L 258.199308 -216.832806 
L 251.20664 -218.363882 
L 244.213971 -223.184754 
L 237.221303 -224.21282 
L 230.228635 -220.431857 
L 223.235967 -217.177365 
L 216.243299 -216.983724 
L 209.250631 -218.86298 
L 202.257963 -220.787331 
L 195.265295 -222.250912 
L 188.272627 -218.202992 
L 181.279959 -221.029835 
L 174.287291 -218.14535 
L 167.294623 -222.876733 
L 160.301955 -216.084646 
L 153.309287 -221.544938 
L 146.316619 -220.945549 
L 139.323951 -217.556005 
L 132.331283 -219.95523 
L 125.338615 -220.759372 
L 118.345947 -218.154016 
L 111.353279 -217.554222 
L 104.360611 -223.597929 
L 97.367943 -222.399778 
L 90.375275 -217.854584 
L 83.382607 -222.318808 
L 76.389939 -220.701387 
L 69.397271 -214.947866 
L 62.404603 -203.510453 
L 55.411935 -172.880007 
L 48.419267 -145.485911 
z
" style="stroke: #1e90ff; stroke-opacity: 0.1"/>
    </defs>
    <g clip-path="url(#p5cba5ddb01)">
     <use xlink:href="#mf41818cf26" x="0" y="288" style="fill: #1e90ff; fill-opacity: 0.1; stroke: #1e90ff; stroke-opacity: 0.1"/>
    </g>
   </g>
   <g id="PolyCollection_3">
    <defs>
     <path id="mefb0733aca" d="M 48.419267 -146.298795 
L 48.419267 -183.725365 
L 55.411935 -194.605325 
L 62.404603 -233.015996 
L 69.397271 -235.317391 
L 76.389939 -238.51604 
L 83.382607 -238.165556 
L 90.375275 -237.731138 
L 97.367943 -237.971639 
L 104.360611 -241.734037 
L 111.353279 -241.990456 
L 118.345947 -236.312658 
L 125.338615 -238.539008 
L 132.331283 -241.292216 
L 139.323951 -239.722037 
L 146.316619 -238.785389 
L 153.309287 -238.421488 
L 160.301955 -239.366084 
L 167.294623 -237.869186 
L 174.287291 -241.316021 
L 181.279959 -241.142843 
L 188.272627 -239.759942 
L 195.265295 -237.178196 
L 202.257963 -238.950405 
L 209.250631 -240.056648 
L 216.243299 -240.809665 
L 223.235967 -239.664831 
L 230.228635 -238.439751 
L 237.221303 -239.66704 
L 244.213971 -240.893086 
L 251.20664 -241.043488 
L 258.199308 -234.880024 
L 265.191976 -240.093767 
L 272.184644 -238.146537 
L 279.177312 -237.599939 
L 286.16998 -239.150373 
L 293.162648 -236.491013 
L 300.155316 -239.791596 
L 307.147984 -238.97282 
L 314.140652 -238.160743 
L 321.13332 -240.745974 
L 328.125988 -239.742721 
L 335.118656 -243.208779 
L 342.111324 -241.416396 
L 349.103992 -242.248233 
L 356.09666 -239.612548 
L 363.089328 -240.989602 
L 370.081996 -240.669061 
L 377.074664 -240.230259 
L 384.067332 -239.287804 
L 391.06 -239.959629 
L 391.06 -229.889333 
L 391.06 -229.889333 
L 384.067332 -229.717826 
L 377.074664 -232.7791 
L 370.081996 -226.378293 
L 363.089328 -228.281547 
L 356.09666 -231.427036 
L 349.103992 -233.699287 
L 342.111324 -230.88072 
L 335.118656 -233.605969 
L 328.125988 -232.550579 
L 321.13332 -233.492135 
L 314.140652 -232.163776 
L 307.147984 -232.392032 
L 300.155316 -234.840374 
L 293.162648 -227.135113 
L 286.16998 -225.58006 
L 279.177312 -228.234102 
L 272.184644 -229.686359 
L 265.191976 -230.911935 
L 258.199308 -226.013738 
L 251.20664 -232.602972 
L 244.213971 -231.582801 
L 237.221303 -230.437536 
L 230.228635 -232.679562 
L 223.235967 -232.818059 
L 216.243299 -230.645143 
L 209.250631 -230.941775 
L 202.257963 -230.167072 
L 195.265295 -226.460524 
L 188.272627 -232.131555 
L 181.279959 -234.77233 
L 174.287291 -233.951254 
L 167.294623 -230.665063 
L 160.301955 -229.213343 
L 153.309287 -229.117786 
L 146.316619 -225.91172 
L 139.323951 -234.058939 
L 132.331283 -233.109254 
L 125.338615 -231.39974 
L 118.345947 -227.824087 
L 111.353279 -228.794296 
L 104.360611 -232.715262 
L 97.367943 -230.521327 
L 90.375275 -227.619135 
L 83.382607 -230.426282 
L 76.389939 -228.926123 
L 69.397271 -225.049535 
L 62.404603 -208.75226 
L 55.411935 -166.499465 
L 48.419267 -146.298795 
z
" style="stroke: #228b22; stroke-opacity: 0.1"/>
    </defs>
    <g clip-path="url(#p5cba5ddb01)">
     <use xlink:href="#mefb0733aca" x="0" y="288" style="fill: #228b22; fill-opacity: 0.1; stroke: #228b22; stroke-opacity: 0.1"/>
    </g>
   </g>
   <g id="matplotlib.axis_1">
    <g id="xtick_1">
     <g id="line2d_1">
      <path d="M 110.654012 246.04 
L 110.654012 14.76 
" clip-path="url(#p5cba5ddb01)" style="fill: none; stroke-dasharray: 4.8,1.2,0.75,1.2; stroke-dashoffset: 0; stroke: #808080; stroke-opacity: 0.2; stroke-width: 0.75"/>
     </g>
     <g id="line2d_2">
      <defs>
       <path id="mafc0bd32d0" d="M 0 0 
L 0 3.5 
" style="stroke: #000000; stroke-width: 0.8"/>
      </defs>
      <g>
       <use xlink:href="#mafc0bd32d0" x="110.654012" y="246.04" style="stroke: #000000; stroke-width: 0.8"/>
      </g>
     </g>
     <g id="text_1">
      <!-- 100 -->
      <g transform="translate(101.110262 260.638438)scale(0.1 -0.1)">
       <defs>
        <path id="DejaVuSans-31" d="M 794 531 
L 1825 531 
L 1825 4091 
L 703 3866 
L 703 4441 
L 1819 4666 
L 2450 4666 
L 2450 531 
L 3481 531 
L 3481 0 
L 794 0 
L 794 531 
z
" transform="scale(0.015625)"/>
        <path id="DejaVuSans-30" d="M 2034 4250 
Q 1547 4250 1301 3770 
Q 1056 3291 1056 2328 
Q 1056 1369 1301 889 
Q 1547 409 2034 409 
Q 2525 409 2770 889 
Q 3016 1369 3016 2328 
Q 3016 3291 2770 3770 
Q 2525 4250 2034 4250 
z
M 2034 4750 
Q 2819 4750 3233 4129 
Q 3647 3509 3647 2328 
Q 3647 1150 3233 529 
Q 2819 -91 2034 -91 
Q 1250 -91 836 529 
Q 422 1150 422 2328 
Q 422 3509 836 4129 
Q 1250 4750 2034 4750 
z
" transform="scale(0.015625)"/>
       </defs>
       <use xlink:href="#DejaVuSans-31"/>
       <use xlink:href="#DejaVuSans-30" x="63.623047"/>
       <use xlink:href="#DejaVuSans-30" x="127.246094"/>
      </g>
     </g>
    </g>
    <g id="xtick_2">
     <g id="line2d_3">
      <path d="M 180.580692 246.04 
L 180.580692 14.76 
" clip-path="url(#p5cba5ddb01)" style="fill: none; stroke-dasharray: 4.8,1.2,0.75,1.2; stroke-dashoffset: 0; stroke: #808080; stroke-opacity: 0.2; stroke-width: 0.75"/>
     </g>
     <g id="line2d_4">
      <g>
       <use xlink:href="#mafc0bd32d0" x="180.580692" y="246.04" style="stroke: #000000; stroke-width: 0.8"/>
      </g>
     </g>
     <g id="text_2">
      <!-- 200 -->
      <g transform="translate(171.036942 260.638438)scale(0.1 -0.1)">
       <defs>
        <path id="DejaVuSans-32" d="M 1228 531 
L 3431 531 
L 3431 0 
L 469 0 
L 469 531 
Q 828 903 1448 1529 
Q 2069 2156 2228 2338 
Q 2531 2678 2651 2914 
Q 2772 3150 2772 3378 
Q 2772 3750 2511 3984 
Q 2250 4219 1831 4219 
Q 1534 4219 1204 4116 
Q 875 4013 500 3803 
L 500 4441 
Q 881 4594 1212 4672 
Q 1544 4750 1819 4750 
Q 2544 4750 2975 4387 
Q 3406 4025 3406 3419 
Q 3406 3131 3298 2873 
Q 3191 2616 2906 2266 
Q 2828 2175 2409 1742 
Q 1991 1309 1228 531 
z
" transform="scale(0.015625)"/>
       </defs>
       <use xlink:href="#DejaVuSans-32"/>
       <use xlink:href="#DejaVuSans-30" x="63.623047"/>
       <use xlink:href="#DejaVuSans-30" x="127.246094"/>
      </g>
     </g>
    </g>
    <g id="xtick_3">
     <g id="line2d_5">
      <path d="M 250.507373 246.04 
L 250.507373 14.76 
" clip-path="url(#p5cba5ddb01)" style="fill: none; stroke-dasharray: 4.8,1.2,0.75,1.2; stroke-dashoffset: 0; stroke: #808080; stroke-opacity: 0.2; stroke-width: 0.75"/>
     </g>
     <g id="line2d_6">
      <g>
       <use xlink:href="#mafc0bd32d0" x="250.507373" y="246.04" style="stroke: #000000; stroke-width: 0.8"/>
      </g>
     </g>
     <g id="text_3">
      <!-- 300 -->
      <g transform="translate(240.963623 260.638438)scale(0.1 -0.1)">
       <defs>
        <path id="DejaVuSans-33" d="M 2597 2516 
Q 3050 2419 3304 2112 
Q 3559 1806 3559 1356 
Q 3559 666 3084 287 
Q 2609 -91 1734 -91 
Q 1441 -91 1130 -33 
Q 819 25 488 141 
L 488 750 
Q 750 597 1062 519 
Q 1375 441 1716 441 
Q 2309 441 2620 675 
Q 2931 909 2931 1356 
Q 2931 1769 2642 2001 
Q 2353 2234 1838 2234 
L 1294 2234 
L 1294 2753 
L 1863 2753 
Q 2328 2753 2575 2939 
Q 2822 3125 2822 3475 
Q 2822 3834 2567 4026 
Q 2313 4219 1838 4219 
Q 1578 4219 1281 4162 
Q 984 4106 628 3988 
L 628 4550 
Q 988 4650 1302 4700 
Q 1616 4750 1894 4750 
Q 2613 4750 3031 4423 
Q 3450 4097 3450 3541 
Q 3450 3153 3228 2886 
Q 3006 2619 2597 2516 
z
" transform="scale(0.015625)"/>
       </defs>
       <use xlink:href="#DejaVuSans-33"/>
       <use xlink:href="#DejaVuSans-30" x="63.623047"/>
       <use xlink:href="#DejaVuSans-30" x="127.246094"/>
      </g>
     </g>
    </g>
    <g id="xtick_4">
     <g id="line2d_7">
      <path d="M 320.434053 246.04 
L 320.434053 14.76 
" clip-path="url(#p5cba5ddb01)" style="fill: none; stroke-dasharray: 4.8,1.2,0.75,1.2; stroke-dashoffset: 0; stroke: #808080; stroke-opacity: 0.2; stroke-width: 0.75"/>
     </g>
     <g id="line2d_8">
      <g>
       <use xlink:href="#mafc0bd32d0" x="320.434053" y="246.04" style="stroke: #000000; stroke-width: 0.8"/>
      </g>
     </g>
     <g id="text_4">
      <!-- 400 -->
      <g transform="translate(310.890303 260.638438)scale(0.1 -0.1)">
       <defs>
        <path id="DejaVuSans-34" d="M 2419 4116 
L 825 1625 
L 2419 1625 
L 2419 4116 
z
M 2253 4666 
L 3047 4666 
L 3047 1625 
L 3713 1625 
L 3713 1100 
L 3047 1100 
L 3047 0 
L 2419 0 
L 2419 1100 
L 313 1100 
L 313 1709 
L 2253 4666 
z
" transform="scale(0.015625)"/>
       </defs>
       <use xlink:href="#DejaVuSans-34"/>
       <use xlink:href="#DejaVuSans-30" x="63.623047"/>
       <use xlink:href="#DejaVuSans-30" x="127.246094"/>
      </g>
     </g>
    </g>
    <g id="xtick_5">
     <g id="line2d_9">
      <path d="M 390.360733 246.04 
L 390.360733 14.76 
" clip-path="url(#p5cba5ddb01)" style="fill: none; stroke-dasharray: 4.8,1.2,0.75,1.2; stroke-dashoffset: 0; stroke: #808080; stroke-opacity: 0.2; stroke-width: 0.75"/>
     </g>
     <g id="line2d_10">
      <g>
       <use xlink:href="#mafc0bd32d0" x="390.360733" y="246.04" style="stroke: #000000; stroke-width: 0.8"/>
      </g>
     </g>
     <g id="text_5">
      <!-- 500 -->
      <g transform="translate(380.816983 260.638438)scale(0.1 -0.1)">
       <defs>
        <path id="DejaVuSans-35" d="M 691 4666 
L 3169 4666 
L 3169 4134 
L 1269 4134 
L 1269 2991 
Q 1406 3038 1543 3061 
Q 1681 3084 1819 3084 
Q 2600 3084 3056 2656 
Q 3513 2228 3513 1497 
Q 3513 744 3044 326 
Q 2575 -91 1722 -91 
Q 1428 -91 1123 -41 
Q 819 9 494 109 
L 494 744 
Q 775 591 1075 516 
Q 1375 441 1709 441 
Q 2250 441 2565 725 
Q 2881 1009 2881 1497 
Q 2881 1984 2565 2268 
Q 2250 2553 1709 2553 
Q 1456 2553 1204 2497 
Q 953 2441 691 2322 
L 691 4666 
z
" transform="scale(0.015625)"/>
       </defs>
       <use xlink:href="#DejaVuSans-35"/>
       <use xlink:href="#DejaVuSans-30" x="63.623047"/>
       <use xlink:href="#DejaVuSans-30" x="127.246094"/>
      </g>
     </g>
    </g>
    <g id="text_6">
     <!-- Steps -->
     <g transform="translate(205.400156 274.316562)scale(0.1 -0.1)">
      <defs>
       <path id="DejaVuSans-53" d="M 3425 4513 
L 3425 3897 
Q 3066 4069 2747 4153 
Q 2428 4238 2131 4238 
Q 1616 4238 1336 4038 
Q 1056 3838 1056 3469 
Q 1056 3159 1242 3001 
Q 1428 2844 1947 2747 
L 2328 2669 
Q 3034 2534 3370 2195 
Q 3706 1856 3706 1288 
Q 3706 609 3251 259 
Q 2797 -91 1919 -91 
Q 1588 -91 1214 -16 
Q 841 59 441 206 
L 441 856 
Q 825 641 1194 531 
Q 1563 422 1919 422 
Q 2459 422 2753 634 
Q 3047 847 3047 1241 
Q 3047 1584 2836 1778 
Q 2625 1972 2144 2069 
L 1759 2144 
Q 1053 2284 737 2584 
Q 422 2884 422 3419 
Q 422 4038 858 4394 
Q 1294 4750 2059 4750 
Q 2388 4750 2728 4690 
Q 3069 4631 3425 4513 
z
" transform="scale(0.015625)"/>
       <path id="DejaVuSans-74" d="M 1172 4494 
L 1172 3500 
L 2356 3500 
L 2356 3053 
L 1172 3053 
L 1172 1153 
Q 1172 725 1289 603 
Q 1406 481 1766 481 
L 2356 481 
L 2356 0 
L 1766 0 
Q 1100 0 847 248 
Q 594 497 594 1153 
L 594 3053 
L 172 3053 
L 172 3500 
L 594 3500 
L 594 4494 
L 1172 4494 
z
" transform="scale(0.015625)"/>
       <path id="DejaVuSans-65" d="M 3597 1894 
L 3597 1613 
L 953 1613 
Q 991 1019 1311 708 
Q 1631 397 2203 397 
Q 2534 397 2845 478 
Q 3156 559 3463 722 
L 3463 178 
Q 3153 47 2828 -22 
Q 2503 -91 2169 -91 
Q 1331 -91 842 396 
Q 353 884 353 1716 
Q 353 2575 817 3079 
Q 1281 3584 2069 3584 
Q 2775 3584 3186 3129 
Q 3597 2675 3597 1894 
z
M 3022 2063 
Q 3016 2534 2758 2815 
Q 2500 3097 2075 3097 
Q 1594 3097 1305 2825 
Q 1016 2553 972 2059 
L 3022 2063 
z
" transform="scale(0.015625)"/>
       <path id="DejaVuSans-70" d="M 1159 525 
L 1159 -1331 
L 581 -1331 
L 581 3500 
L 1159 3500 
L 1159 2969 
Q 1341 3281 1617 3432 
Q 1894 3584 2278 3584 
Q 2916 3584 3314 3078 
Q 3713 2572 3713 1747 
Q 3713 922 3314 415 
Q 2916 -91 2278 -91 
Q 1894 -91 1617 61 
Q 1341 213 1159 525 
z
M 3116 1747 
Q 3116 2381 2855 2742 
Q 2594 3103 2138 3103 
Q 1681 3103 1420 2742 
Q 1159 2381 1159 1747 
Q 1159 1113 1420 752 
Q 1681 391 2138 391 
Q 2594 391 2855 752 
Q 3116 1113 3116 1747 
z
" transform="scale(0.015625)"/>
       <path id="DejaVuSans-73" d="M 2834 3397 
L 2834 2853 
Q 2591 2978 2328 3040 
Q 2066 3103 1784 3103 
Q 1356 3103 1142 2972 
Q 928 2841 928 2578 
Q 928 2378 1081 2264 
Q 1234 2150 1697 2047 
L 1894 2003 
Q 2506 1872 2764 1633 
Q 3022 1394 3022 966 
Q 3022 478 2636 193 
Q 2250 -91 1575 -91 
Q 1294 -91 989 -36 
Q 684 19 347 128 
L 347 722 
Q 666 556 975 473 
Q 1284 391 1588 391 
Q 1994 391 2212 530 
Q 2431 669 2431 922 
Q 2431 1156 2273 1281 
Q 2116 1406 1581 1522 
L 1381 1569 
Q 847 1681 609 1914 
Q 372 2147 372 2553 
Q 372 3047 722 3315 
Q 1072 3584 1716 3584 
Q 2034 3584 2315 3537 
Q 2597 3491 2834 3397 
z
" transform="scale(0.015625)"/>
      </defs>
      <use xlink:href="#DejaVuSans-53"/>
      <use xlink:href="#DejaVuSans-74" x="63.476562"/>
      <use xlink:href="#DejaVuSans-65" x="102.685547"/>
      <use xlink:href="#DejaVuSans-70" x="164.208984"/>
      <use xlink:href="#DejaVuSans-73" x="227.685547"/>
     </g>
    </g>
   </g>
   <g id="matplotlib.axis_2">
    <g id="ytick_1">
     <g id="line2d_11">
      <path d="M 47.72 246.04 
L 391.06 246.04 
" clip-path="url(#p5cba5ddb01)" style="fill: none; stroke-dasharray: 4.8,1.2,0.75,1.2; stroke-dashoffset: 0; stroke: #808080; stroke-opacity: 0.2; stroke-width: 0.75"/>
     </g>
     <g id="line2d_12">
      <defs>
       <path id="mf451cedf46" d="M 0 0 
L -3.5 0 
" style="stroke: #000000; stroke-width: 0.8"/>
      </defs>
      <g>
       <use xlink:href="#mf451cedf46" x="47.72" y="246.04" style="stroke: #000000; stroke-width: 0.8"/>
      </g>
     </g>
     <g id="text_7">
      <!-- 0.0 -->
      <g transform="translate(24.816875 249.839219)scale(0.1 -0.1)">
       <defs>
        <path id="DejaVuSans-2e" d="M 684 794 
L 1344 794 
L 1344 0 
L 684 0 
L 684 794 
z
" transform="scale(0.015625)"/>
       </defs>
       <use xlink:href="#DejaVuSans-30"/>
       <use xlink:href="#DejaVuSans-2e" x="63.623047"/>
       <use xlink:href="#DejaVuSans-30" x="95.410156"/>
      </g>
     </g>
    </g>
    <g id="ytick_2">
     <g id="line2d_13">
      <path d="M 47.72 199.784 
L 391.06 199.784 
" clip-path="url(#p5cba5ddb01)" style="fill: none; stroke-dasharray: 4.8,1.2,0.75,1.2; stroke-dashoffset: 0; stroke: #808080; stroke-opacity: 0.2; stroke-width: 0.75"/>
     </g>
     <g id="line2d_14">
      <g>
       <use xlink:href="#mf451cedf46" x="47.72" y="199.784" style="stroke: #000000; stroke-width: 0.8"/>
      </g>
     </g>
     <g id="text_8">
      <!-- 0.2 -->
      <g transform="translate(24.816875 203.583219)scale(0.1 -0.1)">
       <use xlink:href="#DejaVuSans-30"/>
       <use xlink:href="#DejaVuSans-2e" x="63.623047"/>
       <use xlink:href="#DejaVuSans-32" x="95.410156"/>
      </g>
     </g>
    </g>
    <g id="ytick_3">
     <g id="line2d_15">
      <path d="M 47.72 153.528 
L 391.06 153.528 
" clip-path="url(#p5cba5ddb01)" style="fill: none; stroke-dasharray: 4.8,1.2,0.75,1.2; stroke-dashoffset: 0; stroke: #808080; stroke-opacity: 0.2; stroke-width: 0.75"/>
     </g>
     <g id="line2d_16">
      <g>
       <use xlink:href="#mf451cedf46" x="47.72" y="153.528" style="stroke: #000000; stroke-width: 0.8"/>
      </g>
     </g>
     <g id="text_9">
      <!-- 0.4 -->
      <g transform="translate(24.816875 157.327219)scale(0.1 -0.1)">
       <use xlink:href="#DejaVuSans-30"/>
       <use xlink:href="#DejaVuSans-2e" x="63.623047"/>
       <use xlink:href="#DejaVuSans-34" x="95.410156"/>
      </g>
     </g>
    </g>
    <g id="ytick_4">
     <g id="line2d_17">
      <path d="M 47.72 107.272 
L 391.06 107.272 
" clip-path="url(#p5cba5ddb01)" style="fill: none; stroke-dasharray: 4.8,1.2,0.75,1.2; stroke-dashoffset: 0; stroke: #808080; stroke-opacity: 0.2; stroke-width: 0.75"/>
     </g>
     <g id="line2d_18">
      <g>
       <use xlink:href="#mf451cedf46" x="47.72" y="107.272" style="stroke: #000000; stroke-width: 0.8"/>
      </g>
     </g>
     <g id="text_10">
      <!-- 0.6 -->
      <g transform="translate(24.816875 111.071219)scale(0.1 -0.1)">
       <defs>
        <path id="DejaVuSans-36" d="M 2113 2584 
Q 1688 2584 1439 2293 
Q 1191 2003 1191 1497 
Q 1191 994 1439 701 
Q 1688 409 2113 409 
Q 2538 409 2786 701 
Q 3034 994 3034 1497 
Q 3034 2003 2786 2293 
Q 2538 2584 2113 2584 
z
M 3366 4563 
L 3366 3988 
Q 3128 4100 2886 4159 
Q 2644 4219 2406 4219 
Q 1781 4219 1451 3797 
Q 1122 3375 1075 2522 
Q 1259 2794 1537 2939 
Q 1816 3084 2150 3084 
Q 2853 3084 3261 2657 
Q 3669 2231 3669 1497 
Q 3669 778 3244 343 
Q 2819 -91 2113 -91 
Q 1303 -91 875 529 
Q 447 1150 447 2328 
Q 447 3434 972 4092 
Q 1497 4750 2381 4750 
Q 2619 4750 2861 4703 
Q 3103 4656 3366 4563 
z
" transform="scale(0.015625)"/>
       </defs>
       <use xlink:href="#DejaVuSans-30"/>
       <use xlink:href="#DejaVuSans-2e" x="63.623047"/>
       <use xlink:href="#DejaVuSans-36" x="95.410156"/>
      </g>
     </g>
    </g>
    <g id="ytick_5">
     <g id="line2d_19">
      <path d="M 47.72 61.016 
L 391.06 61.016 
" clip-path="url(#p5cba5ddb01)" style="fill: none; stroke-dasharray: 4.8,1.2,0.75,1.2; stroke-dashoffset: 0; stroke: #808080; stroke-opacity: 0.2; stroke-width: 0.75"/>
     </g>
     <g id="line2d_20">
      <g>
       <use xlink:href="#mf451cedf46" x="47.72" y="61.016" style="stroke: #000000; stroke-width: 0.8"/>
      </g>
     </g>
     <g id="text_11">
      <!-- 0.8 -->
      <g transform="translate(24.816875 64.815219)scale(0.1 -0.1)">
       <defs>
        <path id="DejaVuSans-38" d="M 2034 2216 
Q 1584 2216 1326 1975 
Q 1069 1734 1069 1313 
Q 1069 891 1326 650 
Q 1584 409 2034 409 
Q 2484 409 2743 651 
Q 3003 894 3003 1313 
Q 3003 1734 2745 1975 
Q 2488 2216 2034 2216 
z
M 1403 2484 
Q 997 2584 770 2862 
Q 544 3141 544 3541 
Q 544 4100 942 4425 
Q 1341 4750 2034 4750 
Q 2731 4750 3128 4425 
Q 3525 4100 3525 3541 
Q 3525 3141 3298 2862 
Q 3072 2584 2669 2484 
Q 3125 2378 3379 2068 
Q 3634 1759 3634 1313 
Q 3634 634 3220 271 
Q 2806 -91 2034 -91 
Q 1263 -91 848 271 
Q 434 634 434 1313 
Q 434 1759 690 2068 
Q 947 2378 1403 2484 
z
M 1172 3481 
Q 1172 3119 1398 2916 
Q 1625 2713 2034 2713 
Q 2441 2713 2670 2916 
Q 2900 3119 2900 3481 
Q 2900 3844 2670 4047 
Q 2441 4250 2034 4250 
Q 1625 4250 1398 4047 
Q 1172 3844 1172 3481 
z
" transform="scale(0.015625)"/>
       </defs>
       <use xlink:href="#DejaVuSans-30"/>
       <use xlink:href="#DejaVuSans-2e" x="63.623047"/>
       <use xlink:href="#DejaVuSans-38" x="95.410156"/>
      </g>
     </g>
    </g>
    <g id="ytick_6">
     <g id="line2d_21">
      <path d="M 47.72 14.76 
L 391.06 14.76 
" clip-path="url(#p5cba5ddb01)" style="fill: none; stroke-dasharray: 4.8,1.2,0.75,1.2; stroke-dashoffset: 0; stroke: #808080; stroke-opacity: 0.2; stroke-width: 0.75"/>
     </g>
     <g id="line2d_22">
      <g>
       <use xlink:href="#mf451cedf46" x="47.72" y="14.76" style="stroke: #000000; stroke-width: 0.8"/>
      </g>
     </g>
     <g id="text_12">
      <!-- 1.0 -->
      <g transform="translate(24.816875 18.559219)scale(0.1 -0.1)">
       <use xlink:href="#DejaVuSans-31"/>
       <use xlink:href="#DejaVuSans-2e" x="63.623047"/>
       <use xlink:href="#DejaVuSans-30" x="95.410156"/>
      </g>
     </g>
    </g>
    <g id="text_13">
     <!-- Realism percent -->
     <g transform="translate(18.737188 170.780469)rotate(-90)scale(0.1 -0.1)">
      <defs>
       <path id="DejaVuSans-52" d="M 2841 2188 
Q 3044 2119 3236 1894 
Q 3428 1669 3622 1275 
L 4263 0 
L 3584 0 
L 2988 1197 
Q 2756 1666 2539 1819 
Q 2322 1972 1947 1972 
L 1259 1972 
L 1259 0 
L 628 0 
L 628 4666 
L 2053 4666 
Q 2853 4666 3247 4331 
Q 3641 3997 3641 3322 
Q 3641 2881 3436 2590 
Q 3231 2300 2841 2188 
z
M 1259 4147 
L 1259 2491 
L 2053 2491 
Q 2509 2491 2742 2702 
Q 2975 2913 2975 3322 
Q 2975 3731 2742 3939 
Q 2509 4147 2053 4147 
L 1259 4147 
z
" transform="scale(0.015625)"/>
       <path id="DejaVuSans-61" d="M 2194 1759 
Q 1497 1759 1228 1600 
Q 959 1441 959 1056 
Q 959 750 1161 570 
Q 1363 391 1709 391 
Q 2188 391 2477 730 
Q 2766 1069 2766 1631 
L 2766 1759 
L 2194 1759 
z
M 3341 1997 
L 3341 0 
L 2766 0 
L 2766 531 
Q 2569 213 2275 61 
Q 1981 -91 1556 -91 
Q 1019 -91 701 211 
Q 384 513 384 1019 
Q 384 1609 779 1909 
Q 1175 2209 1959 2209 
L 2766 2209 
L 2766 2266 
Q 2766 2663 2505 2880 
Q 2244 3097 1772 3097 
Q 1472 3097 1187 3025 
Q 903 2953 641 2809 
L 641 3341 
Q 956 3463 1253 3523 
Q 1550 3584 1831 3584 
Q 2591 3584 2966 3190 
Q 3341 2797 3341 1997 
z
" transform="scale(0.015625)"/>
       <path id="DejaVuSans-6c" d="M 603 4863 
L 1178 4863 
L 1178 0 
L 603 0 
L 603 4863 
z
" transform="scale(0.015625)"/>
       <path id="DejaVuSans-69" d="M 603 3500 
L 1178 3500 
L 1178 0 
L 603 0 
L 603 3500 
z
M 603 4863 
L 1178 4863 
L 1178 4134 
L 603 4134 
L 603 4863 
z
" transform="scale(0.015625)"/>
       <path id="DejaVuSans-6d" d="M 3328 2828 
Q 3544 3216 3844 3400 
Q 4144 3584 4550 3584 
Q 5097 3584 5394 3201 
Q 5691 2819 5691 2113 
L 5691 0 
L 5113 0 
L 5113 2094 
Q 5113 2597 4934 2840 
Q 4756 3084 4391 3084 
Q 3944 3084 3684 2787 
Q 3425 2491 3425 1978 
L 3425 0 
L 2847 0 
L 2847 2094 
Q 2847 2600 2669 2842 
Q 2491 3084 2119 3084 
Q 1678 3084 1418 2786 
Q 1159 2488 1159 1978 
L 1159 0 
L 581 0 
L 581 3500 
L 1159 3500 
L 1159 2956 
Q 1356 3278 1631 3431 
Q 1906 3584 2284 3584 
Q 2666 3584 2933 3390 
Q 3200 3197 3328 2828 
z
" transform="scale(0.015625)"/>
       <path id="DejaVuSans-20" transform="scale(0.015625)"/>
       <path id="DejaVuSans-72" d="M 2631 2963 
Q 2534 3019 2420 3045 
Q 2306 3072 2169 3072 
Q 1681 3072 1420 2755 
Q 1159 2438 1159 1844 
L 1159 0 
L 581 0 
L 581 3500 
L 1159 3500 
L 1159 2956 
Q 1341 3275 1631 3429 
Q 1922 3584 2338 3584 
Q 2397 3584 2469 3576 
Q 2541 3569 2628 3553 
L 2631 2963 
z
" transform="scale(0.015625)"/>
       <path id="DejaVuSans-63" d="M 3122 3366 
L 3122 2828 
Q 2878 2963 2633 3030 
Q 2388 3097 2138 3097 
Q 1578 3097 1268 2742 
Q 959 2388 959 1747 
Q 959 1106 1268 751 
Q 1578 397 2138 397 
Q 2388 397 2633 464 
Q 2878 531 3122 666 
L 3122 134 
Q 2881 22 2623 -34 
Q 2366 -91 2075 -91 
Q 1284 -91 818 406 
Q 353 903 353 1747 
Q 353 2603 823 3093 
Q 1294 3584 2113 3584 
Q 2378 3584 2631 3529 
Q 2884 3475 3122 3366 
z
" transform="scale(0.015625)"/>
       <path id="DejaVuSans-6e" d="M 3513 2113 
L 3513 0 
L 2938 0 
L 2938 2094 
Q 2938 2591 2744 2837 
Q 2550 3084 2163 3084 
Q 1697 3084 1428 2787 
Q 1159 2491 1159 1978 
L 1159 0 
L 581 0 
L 581 3500 
L 1159 3500 
L 1159 2956 
Q 1366 3272 1645 3428 
Q 1925 3584 2291 3584 
Q 2894 3584 3203 3211 
Q 3513 2838 3513 2113 
z
" transform="scale(0.015625)"/>
      </defs>
      <use xlink:href="#DejaVuSans-52"/>
      <use xlink:href="#DejaVuSans-65" x="64.982422"/>
      <use xlink:href="#DejaVuSans-61" x="126.505859"/>
      <use xlink:href="#DejaVuSans-6c" x="187.785156"/>
      <use xlink:href="#DejaVuSans-69" x="215.568359"/>
      <use xlink:href="#DejaVuSans-73" x="243.351562"/>
      <use xlink:href="#DejaVuSans-6d" x="295.451172"/>
      <use xlink:href="#DejaVuSans-20" x="392.863281"/>
      <use xlink:href="#DejaVuSans-70" x="424.650391"/>
      <use xlink:href="#DejaVuSans-65" x="488.126953"/>
      <use xlink:href="#DejaVuSans-72" x="549.650391"/>
      <use xlink:href="#DejaVuSans-63" x="588.513672"/>
      <use xlink:href="#DejaVuSans-65" x="643.494141"/>
      <use xlink:href="#DejaVuSans-6e" x="705.017578"/>
      <use xlink:href="#DejaVuSans-74" x="768.396484"/>
     </g>
    </g>
   </g>
   <g id="line2d_23">
    <path d="M 48.419267 122.050591 
L 55.411935 148.116708 
L 62.404603 106.214675 
L 69.397271 110.43581 
L 76.389939 112.779132 
L 83.382607 119.945703 
L 90.375275 119.902469 
L 97.367943 119.398231 
L 104.360611 120.65498 
L 111.353279 127.424359 
L 118.345947 124.025486 
L 125.338615 123.375968 
L 132.331283 125.35787 
L 139.323951 126.115557 
L 146.316619 128.168623 
L 153.309287 126.019854 
L 160.301955 121.514588 
L 167.294623 127.406742 
L 174.287291 131.11688 
L 181.279959 124.92254 
L 188.272627 130.889435 
L 195.265295 126.914085 
L 202.257963 135.041689 
L 209.250631 131.913925 
L 216.243299 126.722947 
L 223.235967 131.994332 
L 230.228635 130.21532 
L 237.221303 130.066043 
L 244.213971 126.249351 
L 251.20664 127.207377 
L 258.199308 129.310147 
L 265.191976 131.867565 
L 272.184644 130.114817 
L 279.177312 136.427253 
L 286.16998 132.691847 
L 293.162648 125.679414 
L 300.155316 133.254129 
L 307.147984 132.719363 
L 314.140652 129.637772 
L 321.13332 132.091553 
L 328.125988 133.467167 
L 335.118656 128.931715 
L 342.111324 127.670736 
L 349.103992 131.310626 
L 356.09666 132.941702 
L 363.089328 133.980839 
L 370.081996 128.285429 
L 377.074664 132.399743 
L 384.067332 128.216718 
L 391.06 136.175074 
" clip-path="url(#p5cba5ddb01)" style="fill: none; stroke: #b22222; stroke-width: 1.5; stroke-linecap: square"/>
   </g>
   <g id="line2d_24">
    <path d="M 48.419267 125.80601 
L 55.411935 100.697832 
L 62.404603 72.949638 
L 69.397271 66.073307 
L 76.389939 63.343509 
L 83.382607 61.144304 
L 90.375275 64.869954 
L 97.367943 61.689136 
L 104.360611 61.254113 
L 111.353279 65.809708 
L 118.345947 64.405783 
L 125.338615 62.594719 
L 132.331283 63.256445 
L 139.323951 65.573872 
L 146.316619 62.878589 
L 153.309287 63.04776 
L 160.301955 65.641926 
L 167.294623 61.122504 
L 174.287291 63.147245 
L 181.279959 63.399305 
L 188.272627 63.696688 
L 195.265295 61.277143 
L 202.257963 62.800104 
L 209.250631 64.462545 
L 216.243299 64.292474 
L 223.235967 66.746411 
L 230.228635 61.755078 
L 237.221303 60.601326 
L 244.213971 61.208187 
L 251.20664 65.320256 
L 258.199308 66.955086 
L 265.191976 63.975977 
L 272.184644 63.749506 
L 279.177312 61.330638 
L 286.16998 64.290269 
L 293.162648 67.517748 
L 300.155316 63.80035 
L 307.147984 67.593291 
L 314.140652 64.120193 
L 321.13332 66.162405 
L 328.125988 62.034489 
L 335.118656 64.567136 
L 342.111324 66.919914 
L 349.103992 64.487326 
L 356.09666 64.369674 
L 363.089328 63.368027 
L 370.081996 64.595314 
L 377.074664 63.938572 
L 384.067332 67.035314 
L 391.06 65.288332 
" clip-path="url(#p5cba5ddb01)" style="fill: none; stroke: #1e90ff; stroke-width: 1.5; stroke-linecap: square"/>
   </g>
   <g id="line2d_25">
    <path d="M 48.419267 122.98792 
L 55.411935 107.447605 
L 62.404603 67.115872 
L 69.397271 57.816537 
L 76.389939 54.278919 
L 83.382607 53.704081 
L 90.375275 55.324864 
L 97.367943 53.753517 
L 104.360611 50.77535 
L 111.353279 52.607624 
L 118.345947 55.931627 
L 125.338615 53.030626 
L 132.331283 50.799265 
L 139.323951 51.109512 
L 146.316619 55.651446 
L 153.309287 54.230363 
L 160.301955 53.710287 
L 167.294623 53.732876 
L 174.287291 50.366362 
L 181.279959 50.042414 
L 188.272627 52.054251 
L 195.265295 56.18064 
L 202.257963 53.441261 
L 209.250631 52.500788 
L 216.243299 52.272596 
L 223.235967 51.758555 
L 230.228635 52.440344 
L 237.221303 52.947712 
L 244.213971 51.762057 
L 251.20664 51.17677 
L 258.199308 57.553119 
L 265.191976 52.497149 
L 272.184644 54.083552 
L 279.177312 55.08298 
L 286.16998 55.634783 
L 293.162648 56.186937 
L 300.155316 50.684015 
L 307.147984 52.317574 
L 314.140652 52.83774 
L 321.13332 50.880946 
L 328.125988 51.85335 
L 335.118656 49.592626 
L 342.111324 51.851442 
L 349.103992 50.02624 
L 356.09666 52.480208 
L 363.089328 53.364426 
L 370.081996 54.476323 
L 377.074664 51.495321 
L 384.067332 53.497185 
L 391.06 53.075519 
" clip-path="url(#p5cba5ddb01)" style="fill: none; stroke: #228b22; stroke-width: 1.5; stroke-linecap: square"/>
   </g>
   <g id="line2d_26">
    <path d="M 48.419267 127.786698 
L 55.411935 127.786698 
L 62.404603 127.786698 
L 69.397271 127.786698 
L 76.389939 127.786698 
L 83.382607 127.786698 
L 90.375275 127.786698 
L 97.367943 127.786698 
L 104.360611 127.786698 
L 111.353279 127.786698 
L 118.345947 127.786698 
L 125.338615 127.786698 
L 132.331283 127.786698 
L 139.323951 127.786698 
L 146.316619 127.786698 
L 153.309287 127.786698 
L 160.301955 127.786698 
L 167.294623 127.786698 
L 174.287291 127.786698 
L 181.279959 127.786698 
L 188.272627 127.786698 
L 195.265295 127.786698 
L 202.257963 127.786698 
L 209.250631 127.786698 
L 216.243299 127.786698 
L 223.235967 127.786698 
L 230.228635 127.786698 
L 237.221303 127.786698 
L 244.213971 127.786698 
L 251.20664 127.786698 
L 258.199308 127.786698 
L 265.191976 127.786698 
L 272.184644 127.786698 
L 279.177312 127.786698 
L 286.16998 127.786698 
L 293.162648 127.786698 
L 300.155316 127.786698 
L 307.147984 127.786698 
L 314.140652 127.786698 
L 321.13332 127.786698 
L 328.125988 127.786698 
L 335.118656 127.786698 
L 342.111324 127.786698 
L 349.103992 127.786698 
L 356.09666 127.786698 
L 363.089328 127.786698 
L 370.081996 127.786698 
L 377.074664 127.786698 
L 384.067332 127.786698 
L 391.06 127.786698 
" clip-path="url(#p5cba5ddb01)" style="fill: none; stroke-dasharray: 1.5,2.475; stroke-dashoffset: 0; stroke: #b22222; stroke-width: 1.5"/>
   </g>
   <g id="line2d_27">
    <path d="M 48.419267 66.139309 
L 55.411935 66.139309 
L 62.404603 66.139309 
L 69.397271 66.139309 
L 76.389939 66.139309 
L 83.382607 66.139309 
L 90.375275 66.139309 
L 97.367943 66.139309 
L 104.360611 66.139309 
L 111.353279 66.139309 
L 118.345947 66.139309 
L 125.338615 66.139309 
L 132.331283 66.139309 
L 139.323951 66.139309 
L 146.316619 66.139309 
L 153.309287 66.139309 
L 160.301955 66.139309 
L 167.294623 66.139309 
L 174.287291 66.139309 
L 181.279959 66.139309 
L 188.272627 66.139309 
L 195.265295 66.139309 
L 202.257963 66.139309 
L 209.250631 66.139309 
L 216.243299 66.139309 
L 223.235967 66.139309 
L 230.228635 66.139309 
L 237.221303 66.139309 
L 244.213971 66.139309 
L 251.20664 66.139309 
L 258.199308 66.139309 
L 265.191976 66.139309 
L 272.184644 66.139309 
L 279.177312 66.139309 
L 286.16998 66.139309 
L 293.162648 66.139309 
L 300.155316 66.139309 
L 307.147984 66.139309 
L 314.140652 66.139309 
L 321.13332 66.139309 
L 328.125988 66.139309 
L 335.118656 66.139309 
L 342.111324 66.139309 
L 349.103992 66.139309 
L 356.09666 66.139309 
L 363.089328 66.139309 
L 370.081996 66.139309 
L 377.074664 66.139309 
L 384.067332 66.139309 
L 391.06 66.139309 
" clip-path="url(#p5cba5ddb01)" style="fill: none; stroke-dasharray: 1.5,2.475; stroke-dashoffset: 0; stroke: #1e90ff; stroke-width: 1.5"/>
   </g>
   <g id="line2d_28">
    <path d="M 48.419267 55.808469 
L 55.411935 55.808469 
L 62.404603 55.808469 
L 69.397271 55.808469 
L 76.389939 55.808469 
L 83.382607 55.808469 
L 90.375275 55.808469 
L 97.367943 55.808469 
L 104.360611 55.808469 
L 111.353279 55.808469 
L 118.345947 55.808469 
L 125.338615 55.808469 
L 132.331283 55.808469 
L 139.323951 55.808469 
L 146.316619 55.808469 
L 153.309287 55.808469 
L 160.301955 55.808469 
L 167.294623 55.808469 
L 174.287291 55.808469 
L 181.279959 55.808469 
L 188.272627 55.808469 
L 195.265295 55.808469 
L 202.257963 55.808469 
L 209.250631 55.808469 
L 216.243299 55.808469 
L 223.235967 55.808469 
L 230.228635 55.808469 
L 237.221303 55.808469 
L 244.213971 55.808469 
L 251.20664 55.808469 
L 258.199308 55.808469 
L 265.191976 55.808469 
L 272.184644 55.808469 
L 279.177312 55.808469 
L 286.16998 55.808469 
L 293.162648 55.808469 
L 300.155316 55.808469 
L 307.147984 55.808469 
L 314.140652 55.808469 
L 321.13332 55.808469 
L 328.125988 55.808469 
L 335.118656 55.808469 
L 342.111324 55.808469 
L 349.103992 55.808469 
L 356.09666 55.808469 
L 363.089328 55.808469 
L 370.081996 55.808469 
L 377.074664 55.808469 
L 384.067332 55.808469 
L 391.06 55.808469 
" clip-path="url(#p5cba5ddb01)" style="fill: none; stroke-dasharray: 1.5,2.475; stroke-dashoffset: 0; stroke: #228b22; stroke-width: 1.5"/>
   </g>
   <g id="patch_3">
    <path d="M 47.72 246.04 
L 47.72 14.76 
" style="fill: none; stroke: #000000; stroke-width: 0.8; stroke-linejoin: miter; stroke-linecap: square"/>
   </g>
   <g id="patch_4">
    <path d="M 391.06 246.04 
L 391.06 14.76 
" style="fill: none; stroke: #000000; stroke-width: 0.8; stroke-linejoin: miter; stroke-linecap: square"/>
   </g>
   <g id="patch_5">
    <path d="M 47.72 246.04 
L 391.06 246.04 
" style="fill: none; stroke: #000000; stroke-width: 0.8; stroke-linejoin: miter; stroke-linecap: square"/>
   </g>
   <g id="patch_6">
    <path d="M 47.72 14.76 
L 391.06 14.76 
" style="fill: none; stroke: #000000; stroke-width: 0.8; stroke-linejoin: miter; stroke-linecap: square"/>
   </g>
   <g id="text_14">
    <!-- 0.51 -->
    <g transform="translate(399.06 132.412298)scale(0.1 -0.1)">
     <use xlink:href="#DejaVuSans-30"/>
     <use xlink:href="#DejaVuSans-2e" x="63.623047"/>
     <use xlink:href="#DejaVuSans-35" x="95.410156"/>
     <use xlink:href="#DejaVuSans-31" x="159.033203"/>
    </g>
   </g>
   <g id="text_15">
    <!-- 0.78 -->
    <g transform="translate(399.06 70.764909)scale(0.1 -0.1)">
     <defs>
      <path id="DejaVuSans-37" d="M 525 4666 
L 3525 4666 
L 3525 4397 
L 1831 0 
L 1172 0 
L 2766 4134 
L 525 4134 
L 525 4666 
z
" transform="scale(0.015625)"/>
     </defs>
     <use xlink:href="#DejaVuSans-30"/>
     <use xlink:href="#DejaVuSans-2e" x="63.623047"/>
     <use xlink:href="#DejaVuSans-37" x="95.410156"/>
     <use xlink:href="#DejaVuSans-38" x="159.033203"/>
    </g>
   </g>
   <g id="text_16">
    <!-- 0.82 -->
    <g transform="translate(399.06 55.808469)scale(0.1 -0.1)">
     <use xlink:href="#DejaVuSans-30"/>
     <use xlink:href="#DejaVuSans-2e" x="63.623047"/>
     <use xlink:href="#DejaVuSans-38" x="95.410156"/>
     <use xlink:href="#DejaVuSans-32" x="159.033203"/>
    </g>
   </g>
   <g id="legend_1">
    <g id="patch_7">
     <path d="M 54.72 241.04 
L 147.066875 241.04 
Q 149.066875 241.04 149.066875 239.04 
L 149.066875 151.97125 
Q 149.066875 149.97125 147.066875 149.97125 
L 54.72 149.97125 
Q 52.72 149.97125 52.72 151.97125 
L 52.72 239.04 
Q 52.72 241.04 54.72 241.04 
z
" style="fill: #ffffff; opacity: 0.8; stroke: #cccccc; stroke-linejoin: miter"/>
    </g>
    <g id="line2d_29">
     <path d="M 56.72 158.069687 
L 66.72 158.069687 
L 76.72 158.069687 
" style="fill: none; stroke: #b22222; stroke-width: 1.5; stroke-linecap: square"/>
    </g>
    <g id="text_17">
     <!-- EvoMol -->
     <g transform="translate(84.72 161.569687)scale(0.1 -0.1)">
      <defs>
       <path id="DejaVuSans-45" d="M 628 4666 
L 3578 4666 
L 3578 4134 
L 1259 4134 
L 1259 2753 
L 3481 2753 
L 3481 2222 
L 1259 2222 
L 1259 531 
L 3634 531 
L 3634 0 
L 628 0 
L 628 4666 
z
" transform="scale(0.015625)"/>
       <path id="DejaVuSans-76" d="M 191 3500 
L 800 3500 
L 1894 563 
L 2988 3500 
L 3597 3500 
L 2284 0 
L 1503 0 
L 191 3500 
z
" transform="scale(0.015625)"/>
       <path id="DejaVuSans-6f" d="M 1959 3097 
Q 1497 3097 1228 2736 
Q 959 2375 959 1747 
Q 959 1119 1226 758 
Q 1494 397 1959 397 
Q 2419 397 2687 759 
Q 2956 1122 2956 1747 
Q 2956 2369 2687 2733 
Q 2419 3097 1959 3097 
z
M 1959 3584 
Q 2709 3584 3137 3096 
Q 3566 2609 3566 1747 
Q 3566 888 3137 398 
Q 2709 -91 1959 -91 
Q 1206 -91 779 398 
Q 353 888 353 1747 
Q 353 2609 779 3096 
Q 1206 3584 1959 3584 
z
" transform="scale(0.015625)"/>
       <path id="DejaVuSans-4d" d="M 628 4666 
L 1569 4666 
L 2759 1491 
L 3956 4666 
L 4897 4666 
L 4897 0 
L 4281 0 
L 4281 4097 
L 3078 897 
L 2444 897 
L 1241 4097 
L 1241 0 
L 628 0 
L 628 4666 
z
" transform="scale(0.015625)"/>
      </defs>
      <use xlink:href="#DejaVuSans-45"/>
      <use xlink:href="#DejaVuSans-76" x="63.183594"/>
      <use xlink:href="#DejaVuSans-6f" x="122.363281"/>
      <use xlink:href="#DejaVuSans-4d" x="183.544922"/>
      <use xlink:href="#DejaVuSans-6f" x="269.824219"/>
      <use xlink:href="#DejaVuSans-6c" x="331.005859"/>
     </g>
    </g>
    <g id="line2d_30">
     <path d="M 56.72 172.747813 
L 66.72 172.747813 
L 76.72 172.747813 
" style="fill: none; stroke: #1e90ff; stroke-width: 1.5; stroke-linecap: square"/>
    </g>
    <g id="text_18">
     <!-- ECFP0 -->
     <g transform="translate(84.72 176.247813)scale(0.1 -0.1)">
      <defs>
       <path id="DejaVuSans-43" d="M 4122 4306 
L 4122 3641 
Q 3803 3938 3442 4084 
Q 3081 4231 2675 4231 
Q 1875 4231 1450 3742 
Q 1025 3253 1025 2328 
Q 1025 1406 1450 917 
Q 1875 428 2675 428 
Q 3081 428 3442 575 
Q 3803 722 4122 1019 
L 4122 359 
Q 3791 134 3420 21 
Q 3050 -91 2638 -91 
Q 1578 -91 968 557 
Q 359 1206 359 2328 
Q 359 3453 968 4101 
Q 1578 4750 2638 4750 
Q 3056 4750 3426 4639 
Q 3797 4528 4122 4306 
z
" transform="scale(0.015625)"/>
       <path id="DejaVuSans-46" d="M 628 4666 
L 3309 4666 
L 3309 4134 
L 1259 4134 
L 1259 2759 
L 3109 2759 
L 3109 2228 
L 1259 2228 
L 1259 0 
L 628 0 
L 628 4666 
z
" transform="scale(0.015625)"/>
       <path id="DejaVuSans-50" d="M 1259 4147 
L 1259 2394 
L 2053 2394 
Q 2494 2394 2734 2622 
Q 2975 2850 2975 3272 
Q 2975 3691 2734 3919 
Q 2494 4147 2053 4147 
L 1259 4147 
z
M 628 4666 
L 2053 4666 
Q 2838 4666 3239 4311 
Q 3641 3956 3641 3272 
Q 3641 2581 3239 2228 
Q 2838 1875 2053 1875 
L 1259 1875 
L 1259 0 
L 628 0 
L 628 4666 
z
" transform="scale(0.015625)"/>
      </defs>
      <use xlink:href="#DejaVuSans-45"/>
      <use xlink:href="#DejaVuSans-43" x="63.183594"/>
      <use xlink:href="#DejaVuSans-46" x="133.007812"/>
      <use xlink:href="#DejaVuSans-50" x="190.527344"/>
      <use xlink:href="#DejaVuSans-30" x="250.830078"/>
     </g>
    </g>
    <g id="line2d_31">
     <path d="M 56.72 187.425938 
L 66.72 187.425938 
L 76.72 187.425938 
" style="fill: none; stroke: #228b22; stroke-width: 1.5; stroke-linecap: square"/>
    </g>
    <g id="text_19">
     <!-- ECFP2 -->
     <g transform="translate(84.72 190.925938)scale(0.1 -0.1)">
      <use xlink:href="#DejaVuSans-45"/>
      <use xlink:href="#DejaVuSans-43" x="63.183594"/>
      <use xlink:href="#DejaVuSans-46" x="133.007812"/>
      <use xlink:href="#DejaVuSans-50" x="190.527344"/>
      <use xlink:href="#DejaVuSans-32" x="250.830078"/>
     </g>
    </g>
    <g id="line2d_32">
     <path d="M 56.72 202.104062 
L 66.72 202.104062 
L 76.72 202.104062 
" style="fill: none; stroke-dasharray: 1.5,2.475; stroke-dashoffset: 0; stroke: #b22222; stroke-width: 1.5"/>
    </g>
    <g id="text_20">
     <!-- sum EvoMol -->
     <g transform="translate(84.72 205.604062)scale(0.1 -0.1)">
      <defs>
       <path id="DejaVuSans-75" d="M 544 1381 
L 544 3500 
L 1119 3500 
L 1119 1403 
Q 1119 906 1312 657 
Q 1506 409 1894 409 
Q 2359 409 2629 706 
Q 2900 1003 2900 1516 
L 2900 3500 
L 3475 3500 
L 3475 0 
L 2900 0 
L 2900 538 
Q 2691 219 2414 64 
Q 2138 -91 1772 -91 
Q 1169 -91 856 284 
Q 544 659 544 1381 
z
M 1991 3584 
L 1991 3584 
z
" transform="scale(0.015625)"/>
      </defs>
      <use xlink:href="#DejaVuSans-73"/>
      <use xlink:href="#DejaVuSans-75" x="52.099609"/>
      <use xlink:href="#DejaVuSans-6d" x="115.478516"/>
      <use xlink:href="#DejaVuSans-20" x="212.890625"/>
      <use xlink:href="#DejaVuSans-45" x="244.677734"/>
      <use xlink:href="#DejaVuSans-76" x="307.861328"/>
      <use xlink:href="#DejaVuSans-6f" x="367.041016"/>
      <use xlink:href="#DejaVuSans-4d" x="428.222656"/>
      <use xlink:href="#DejaVuSans-6f" x="514.501953"/>
      <use xlink:href="#DejaVuSans-6c" x="575.683594"/>
     </g>
    </g>
    <g id="line2d_33">
     <path d="M 56.72 216.782188 
L 66.72 216.782188 
L 76.72 216.782188 
" style="fill: none; stroke-dasharray: 1.5,2.475; stroke-dashoffset: 0; stroke: #1e90ff; stroke-width: 1.5"/>
    </g>
    <g id="text_21">
     <!-- sum ECFP0 -->
     <g transform="translate(84.72 220.282188)scale(0.1 -0.1)">
      <use xlink:href="#DejaVuSans-73"/>
      <use xlink:href="#DejaVuSans-75" x="52.099609"/>
      <use xlink:href="#DejaVuSans-6d" x="115.478516"/>
      <use xlink:href="#DejaVuSans-20" x="212.890625"/>
      <use xlink:href="#DejaVuSans-45" x="244.677734"/>
      <use xlink:href="#DejaVuSans-43" x="307.861328"/>
      <use xlink:href="#DejaVuSans-46" x="377.685547"/>
      <use xlink:href="#DejaVuSans-50" x="435.205078"/>
      <use xlink:href="#DejaVuSans-30" x="495.507812"/>
     </g>
    </g>
    <g id="line2d_34">
     <path d="M 56.72 231.460312 
L 66.72 231.460312 
L 76.72 231.460312 
" style="fill: none; stroke-dasharray: 1.5,2.475; stroke-dashoffset: 0; stroke: #228b22; stroke-width: 1.5"/>
    </g>
    <g id="text_22">
     <!-- sum ECFP2  -->
     <g transform="translate(84.72 234.960312)scale(0.1 -0.1)">
      <use xlink:href="#DejaVuSans-73"/>
      <use xlink:href="#DejaVuSans-75" x="52.099609"/>
      <use xlink:href="#DejaVuSans-6d" x="115.478516"/>
      <use xlink:href="#DejaVuSans-20" x="212.890625"/>
      <use xlink:href="#DejaVuSans-45" x="244.677734"/>
      <use xlink:href="#DejaVuSans-43" x="307.861328"/>
      <use xlink:href="#DejaVuSans-46" x="377.685547"/>
      <use xlink:href="#DejaVuSans-50" x="435.205078"/>
      <use xlink:href="#DejaVuSans-32" x="495.507812"/>
      <use xlink:href="#DejaVuSans-20" x="559.130859"/>
     </g>
    </g>
   </g>
  </g>
 </g>
 <defs>
  <clipPath id="p5cba5ddb01">
   <rect x="47.72" y="14.76" width="343.34" height="231.28"/>
  </clipPath>
 </defs>
</svg>
